<svg xmlns="http://www.w3.org/2000/svg" viewBox="0 0 57.75 57.75"><defs><style>.cls-1{fill:#298bbb;}.cls-2{fill:none;stroke:#288bbe;stroke-miterlimit:10;stroke-width:2.75px;}</style></defs><title>homeAsset 1</title><g id="Layer_2" data-name="Layer 2"><g id="Layer_1-2" data-name="Layer 1"><path class="cls-1" d="M49,26.55,29.8,9.92a1.28,1.28,0,0,0-1.67,0l-6.84,5.92v-2.4a2.56,2.56,0,0,0-5.12,0v6.84L8.93,26.55a1.28,1.28,0,0,0,1.68,1.93L29,12.58,47.3,28.48A1.28,1.28,0,0,0,49,26.55Z"/><path class="cls-1" d="M43.37,29.63,30.59,19.15a2.55,2.55,0,0,0-3.27,0L14.54,29.63a2.56,2.56,0,0,0-.94,2V44.14a2.55,2.55,0,0,0,2.55,2.55h8.43V40.44a4.36,4.36,0,0,1,8.73,0V46.7h8.43a2.56,2.56,0,0,0,2.56-2.56V31.61A2.54,2.54,0,0,0,43.37,29.63Z"/><path class="cls-2" d="M1.38,46.74V11A9.62,9.62,0,0,1,11,1.38H46.74A9.67,9.67,0,0,1,56.38,11V46.74a9.71,9.71,0,0,1-9.63,9.63H11A9.67,9.67,0,0,1,1.38,46.74ZM6,46.42V10.69a5.48,5.48,0,0,1,5.47-5.47H47.18a5.47,5.47,0,0,1,5.4,5.47V46.42a5.45,5.45,0,0,1-5.4,5.4H11.45A5.47,5.47,0,0,1,6,46.42Z"/></g></g></svg>